<?xml version="1.0" encoding="UTF-8"?>
<svg width="15px" height="15px" viewBox="0 0 15 15" version="1.1" xmlns="http://www.w3.org/2000/svg" xmlns:xlink="http://www.w3.org/1999/xlink">
    <!-- Generator: Sketch 43 (38999) - http://www.bohemiancoding.com/sketch -->
    <title>jQuery</title>
    <desc>Created with Sketch.</desc>
    <defs></defs>
    <g id="Plugin" stroke="none" stroke-width="1" fill="none" fill-rule="evenodd">
        <g id="jQuery" transform="translate(-7.000000, -7.000000)" fill-rule="nonzero" fill="#2E64B3">
            <g transform="translate(7.000000, 7.000000)" id="Shape">
                <path d="M0.943384615,3.52137097 C-0.371307692,5.50112903 -0.208846154,8.07701613 0.797076923,10.1808871 C0.819461538,10.2324194 0.845538462,10.2810484 0.87,10.3306452 C0.884477843,10.3633067 0.900339799,10.395274 0.917538462,10.4264516 C0.924923077,10.443871 0.936923077,10.4629839 0.946615385,10.4801613 C0.962769231,10.5145161 0.979846154,10.5462097 0.997153846,10.578871 C1.02946154,10.6359677 1.06176923,10.6940323 1.09407692,10.7506452 C1.11230769,10.7820968 1.12961538,10.8135484 1.15015385,10.8452419 C1.18453846,10.9062097 1.22423077,10.9666935 1.26,11.0274194 C1.27615385,11.0535484 1.29115385,11.0789516 1.30846154,11.1043548 C1.35992308,11.1866129 1.41184615,11.2681452 1.46884615,11.3482258 C1.46884615,11.3506452 1.47115385,11.3525806 1.473,11.3537903 C1.48176923,11.3673387 1.49146154,11.3804032 1.5,11.3925 C1.54846154,11.4621774 1.59692308,11.5299194 1.64769231,11.5971774 C1.66476923,11.6218548 1.68415385,11.6467742 1.70146154,11.6709677 C1.74761538,11.7297581 1.79284615,11.7883065 1.83807692,11.846371 C1.85538462,11.8674194 1.87246154,11.8894355 1.89092308,11.9107258 C1.95308431,11.9892596 2.01694709,12.0662958 2.08246154,12.1417742 C2.08476923,12.1446774 2.08684615,12.1475806 2.091,12.1502419 C2.15330769,12.2218548 2.217,12.2925 2.28161538,12.3624194 C2.30215385,12.3839516 2.32246154,12.4047581 2.34507692,12.4275 C2.39469231,12.48 2.44430769,12.5329839 2.49692308,12.5847581 C2.51861538,12.6062903 2.54007692,12.6270968 2.56061538,12.6479032 C2.62938462,12.7156452 2.69838462,12.7833871 2.77061538,12.8482258 C2.77153846,12.8482258 2.77269231,12.8506452 2.77361538,12.851129 C2.78538462,12.8620161 2.79853846,12.8729032 2.80938462,12.8835484 C2.87261538,12.9404032 2.93630769,12.9967742 3.00092308,13.0529032 C3.02676923,13.0754032 3.05261538,13.0966935 3.07846154,13.1187097 C3.13223077,13.1634677 3.186,13.2062903 3.24,13.2493548 C3.26769231,13.271129 3.29584615,13.293629 3.32492308,13.3170968 C3.38307692,13.3625806 3.44353846,13.4070968 3.50261538,13.451129 C3.52407692,13.4675806 3.54553846,13.4840323 3.56838462,13.4992742 C3.57369231,13.5041129 3.57992308,13.5089516 3.58546154,13.5135484 C3.64476923,13.5541935 3.70084615,13.5933871 3.759,13.6337903 C3.78461538,13.6512097 3.80976923,13.6681452 3.83423077,13.6855645 C3.92469231,13.7460484 4.01515385,13.8041129 4.10446154,13.8604839 C4.13030769,13.875 4.15615385,13.89 4.18084615,13.905 C4.24776923,13.9456452 4.31561538,13.9858065 4.38438462,14.0242742 C4.422,14.0460484 4.45984615,14.0654032 4.49838462,14.0857258 C4.545,14.1123387 4.59323077,14.1394355 4.64284615,14.1658065 C4.65484615,14.1708871 4.66661538,14.1754839 4.67746154,14.1815323 C4.69776923,14.1912097 4.71715385,14.2018548 4.73653846,14.2120161 C4.812,14.2509677 4.88930769,14.2877419 4.96915385,14.325 C4.98415385,14.3325 5.00030769,14.3390323 5.01646154,14.3475 C5.10576923,14.3881452 5.19507692,14.4273387 5.28646154,14.4650806 C5.30838462,14.4735484 5.32961538,14.4837097 5.35246154,14.4914516 C5.43530769,14.5253226 5.52138462,14.5587097 5.60630769,14.5906452 C5.61715385,14.5954839 5.62707692,14.598871 5.63769231,14.6027419 C5.73230769,14.6366129 5.826,14.6687903 5.922,14.6997581 C5.94438462,14.7065323 5.96723077,14.7147581 5.99076923,14.7210484 C6.08884615,14.7520161 6.18346154,14.7883065 6.28384615,14.8081452 C12.6392308,16.0226613 14.4858462,10.803871 14.4858462,10.803871 C12.9343846,12.9208065 10.1813077,13.4801613 7.57361538,12.8579032 C7.47669231,12.8351613 7.38092308,12.8027419 7.28284615,12.7722581 C7.25892809,12.7653863 7.23522388,12.7577211 7.21176923,12.7492742 C7.11795505,12.7193286 7.02463384,12.6877111 6.93184615,12.6544355 C6.91892308,12.6495968 6.90507692,12.6447581 6.89192308,12.6391935 C6.80920737,12.6088698 6.72703919,12.5769287 6.64546154,12.5433871 C6.62284615,12.5329839 6.59930769,12.5245161 6.57646154,12.5155645 C6.48673081,12.4783049 6.39771332,12.4391843 6.30946154,12.3982258 C6.29030769,12.3909677 6.27392308,12.3822581 6.25569231,12.3745161 C6.18082271,12.3383935 6.10620534,12.3016989 6.03184615,12.2644355 C6.00923077,12.2542742 5.98869231,12.2426613 5.96607692,12.2310484 C5.90792308,12.2020161 5.84976923,12.1700806 5.793,12.1383871 C5.75284615,12.1170968 5.71407692,12.0972581 5.67646154,12.0754839 C5.60653846,12.0358065 5.53638462,11.9939516 5.46646154,11.9535484 C5.44374663,11.9381753 5.42033456,11.9239651 5.39630769,11.9109677 C5.30505122,11.8544082 5.21465526,11.7963364 5.12515385,11.7367742 C5.10031016,11.7203241 5.07591577,11.7031398 5.052,11.6852419 C4.98665037,11.64166 4.9220253,11.5968952 4.85815385,11.5509677 L4.79584615,11.5040323 C4.73432908,11.4587107 4.67324906,11.4127407 4.61261538,11.366129 C4.5860282,11.3442969 4.55910151,11.3229231 4.53184615,11.3020161 C4.47692308,11.2575 4.422,11.2134677 4.36730769,11.1672581 C4.34330769,11.1464516 4.31884615,11.1258871 4.29507692,11.1058065 C4.22530793,11.0466106 4.15667874,10.9859532 4.08923077,10.923871 C4.083,10.9166129 4.07330769,10.9103226 4.06569231,10.9040323 C3.99346154,10.8362903 3.92146154,10.7670968 3.85038462,10.6981452 C3.82869231,10.6768548 3.81069231,10.6570161 3.789,10.6364516 C3.73753846,10.5834677 3.68561538,10.5316935 3.63507692,10.4779839 L3.57369231,10.4131452 C3.5086316,10.3442692 3.44507664,10.2738477 3.38307692,10.2019355 C3.37957197,10.1988486 3.37632905,10.1954487 3.37338462,10.1917742 C3.30799893,10.1160705 3.24376012,10.0392867 3.18069231,9.96145161 C3.16338462,9.94064516 3.14723077,9.9191129 3.13015385,9.89879032 C3.08376923,9.83903226 3.03738462,9.77854839 2.99007692,9.71879032 C2.97507692,9.69556452 2.95776923,9.67379032 2.94046154,9.65104839 C2.88586211,9.57733401 2.83246968,9.50264566 2.78030769,9.42701613 C1.33315385,7.3575 0.810923077,4.50120968 1.96846154,2.15709677"></path>
                <path d="M5.02384615,1.85225806 C4.071,3.28572581 4.12384615,5.20548387 4.86576923,6.72241935 C4.98866071,6.97760053 5.12894774,7.22315693 5.28553846,7.45717742 C5.42769231,7.67153226 5.58484615,7.92556452 5.77546154,8.09782258 C5.84238462,8.17693548 5.91438462,8.25362903 5.98869231,8.33080645 L6.04476923,8.38887097 C6.11584615,8.46072581 6.18784615,8.53137097 6.26215385,8.60008065 C6.26446154,8.60298387 6.26861538,8.6058871 6.27092308,8.60879032 C6.27184615,8.60879032 6.273,8.61120968 6.273,8.61120968 C6.35584615,8.68790323 6.43984615,8.76072581 6.52707692,8.83185484 C6.54738462,8.84709677 6.56584615,8.86427419 6.58615385,8.87927419 C6.67246154,8.94991935 6.76084615,9.01741935 6.84992308,9.08419355 C6.85315385,9.08419355 6.85546154,9.08758065 6.85984615,9.08951613 C6.89838462,9.11854839 6.93946154,9.1458871 6.98146154,9.17419355 C6.99969231,9.18629032 7.01907692,9.20104839 7.03730769,9.21290323 C7.10284615,9.25766129 7.16769231,9.29927419 7.23438462,9.34064516 C7.24407692,9.34548387 7.25376923,9.35129032 7.26346154,9.35637097 C7.31930769,9.39193548 7.37861538,9.42677419 7.43792308,9.45846774 C7.45846154,9.47153226 7.47876923,9.48169355 7.49930769,9.49354839 C7.54015385,9.51483871 7.581,9.53758065 7.62092308,9.55959677 C7.62623077,9.5625 7.63384615,9.56564516 7.64030769,9.56879032 C7.72430769,9.61233871 7.80946154,9.65225806 7.89323077,9.69217742 L7.95023077,9.71637097 C8.01946154,9.74782258 8.08915385,9.77830645 8.15815385,9.8058871 C8.18930769,9.81653226 8.21838462,9.82935484 8.24746154,9.84024194 C8.31092308,9.86395161 8.37576923,9.88693548 8.43923077,9.90895161 L8.52646154,9.93846774 C8.61692308,9.96846774 8.70853846,10.0066935 8.80430769,10.0224194 C13.7095385,10.8752419 14.8444615,6.91354839 14.8444615,6.91354839 C13.8226154,8.45709677 11.8444615,9.1916129 9.73453846,8.61725806 C9.63992308,8.59185484 9.54715385,8.56354839 9.45669231,8.53258065 C9.42863542,8.52454848 9.40091795,8.51526586 9.37361538,8.50475806 C9.30807692,8.48298387 9.24230769,8.45951613 9.17884615,8.43459677 C9.14931301,8.4236522 9.11992559,8.41228015 9.09069231,8.40048387 C9.02076923,8.37169355 8.95061538,8.3433871 8.88276923,8.31169355 C8.86246154,8.30322581 8.84307692,8.29596774 8.82692308,8.28701613 C8.74033098,8.24736806 8.65446917,8.20598955 8.56938462,8.16290323 L8.44130769,8.09346774 C8.41546154,8.07991935 8.39076923,8.06685484 8.36815385,8.05451613 C8.31092308,8.02354839 8.25830769,7.99064516 8.20430769,7.9575 L8.16553846,7.93548387 C8.1,7.89362903 8.03215385,7.85201613 7.96984615,7.80846774 C7.94815385,7.79564516 7.92992308,7.7808871 7.90961538,7.76733871 C7.86625495,7.73827987 7.82317583,7.70876223 7.78038462,7.67879032 C7.6911255,7.61303045 7.60310848,7.54543674 7.51638462,7.47604839 C7.49607692,7.45862903 7.47669231,7.44290323 7.45730769,7.42572581 C6.53123077,6.66169355 5.79923077,5.61653226 5.45261538,4.43298387 C5.08638462,3.20370968 5.16715385,1.82370968 5.79807692,0.704758065"></path>
                <path d="M8.45423077,0.605564516 C7.89230769,1.47024194 7.83830769,2.54443548 8.22576923,3.49790323 C8.63723077,4.5116129 9.47815385,5.30685484 10.458,5.68330645 C10.4976923,5.69975806 10.5376154,5.71330645 10.5786923,5.72806452 C10.5971538,5.73362903 10.614,5.73991935 10.6336154,5.74596774 C10.6906154,5.76459677 10.7476154,5.78709677 10.8066923,5.79919355 C13.5166154,6.34766129 14.2511538,4.34104839 14.4482308,4.0458871 C13.8032308,5.01798387 12.7211538,5.25072581 11.3935385,4.91298387 C11.2853303,4.88402741 11.1786453,4.84914078 11.0739231,4.80846774 C10.9439378,4.76003864 10.81632,4.70489045 10.6915385,4.64322581 C10.4558964,4.52360405 10.2319836,4.38009783 10.023,4.21475806 C8.83430769,3.27 8.09769231,1.46782258 8.87307692,0"></path>
            </g>
        </g>
    </g>
</svg>