<?xml version="1.0" encoding="UTF-8"?>
<svg width="15px" height="15px" viewBox="0 0 15 15" version="1.1" xmlns="http://www.w3.org/2000/svg" xmlns:xlink="http://www.w3.org/1999/xlink">
    <!-- Generator: Sketch 43 (38999) - http://www.bohemiancoding.com/sketch -->
    <title>Shape</title>
    <desc>Created with Sketch.</desc>
    <defs></defs>
    <g id="Plugin" stroke="none" stroke-width="1" fill="none" fill-rule="evenodd">
        <g id="Varnish" transform="translate(-9.000000, -7.000000)" fill-rule="nonzero" fill="#2D79BD">
            <g transform="translate(9.000000, 7.000000)" id="Shape">
                <path d="M8.16233463,4.71344358 C8.81912451,6.53177043 10.8263813,7.47338521 12.6442412,6.81636187 C14.4631518,6.15945525 15.404358,4.15266537 14.7477432,2.33416342 C14.0903696,0.516070039 12.0841634,-0.42577821 10.2652529,0.231070039 C8.44715953,0.887976654 7.50536965,2.89488327 8.16233463,4.71344358 M3.70657588,11.2053502 C3.01955253,12.4209339 3.4479572,13.9631907 4.66330739,14.650214 C5.87894942,15.3376459 7.42190661,14.9089494 8.10875486,13.6934825 C8.79554475,12.4777237 8.36731518,10.9353502 7.15155642,10.2481518 C5.93614786,9.5611284 4.39319066,9.98964981 3.70657588,11.2053502 M0.0723151751,6.29789883 C-0.0873735409,7.09015564 0.42536965,7.8622179 1.21756809,8.02225681 C2.0098249,8.18217899 2.78223735,7.66955253 2.94169261,6.87741245 C3.10208171,6.08480545 2.58933852,5.31262646 1.79684825,5.15270428 C1.00447471,4.992607 0.232470817,5.50552529 0.0723735409,6.29784047"></path>
            </g>
        </g>
    </g>
</svg>